STARTFONT 2.1
COMMENT ""
COMMENT $XConsortium: 10x20.bdf,v 1.12 92/04/02 14:25:55 gildea Exp $
COMMENT "$NCDId: @(#)10x20.bdf,v 1.11 1991/07/02 14:50:48 jim Exp $"
COMMENT  ""
COMMENT  "Copyright 1989-1991 Network Computing Devices, Inc."
COMMENT  "NCD is a registered trademark of Network Computing Devices, Inc."
COMMENT  ""
COMMENT  "Permission to use, copy, modify, and distribute this software and"
COMMENT  "its documentation for any purpose and without fee is hereby"
COMMENT  "granted, provided that the above copyright notice appear in all"
COMMENT  "copies and that both that copyright notice and this permission"
COMMENT  "notice appear in supporting documentation, and that the name of"
COMMENT  "NCD may not be used in advertising or publicity pertaining to"
COMMENT  "distribution of the software without specific, written prior"
COMMENT  "permission.  NCD makes no representations about the"
COMMENT  "suitability of this software for any purpose.  It is provided ``as"
COMMENT  "is'' without express or implied warranty."
COMMENT  ""
COMMENT  "NCD DISCLAIMS ALL WARRANTIES WITH REGARD TO THIS SOFTWARE,"
COMMENT  "INCLUDING ALL IMPLIED WARRANTIES OF MERCHANTABILITY AND FITNESS, IN"
COMMENT  "NO EVENT SHALL NCD BE LIABLE FOR ANY SPECIAL, INDIRECT OR"
COMMENT  "CONSEQUENTIAL DAMAGES OR ANY DAMAGES WHATSOEVER RESULTING FROM LOSS"
COMMENT  "OF USE, DATA OR PROFITS, WHETHER IN AN ACTION OF CONTRACT,"
COMMENT  "NEGLIGENCE OR OTHER TORTIOUS ACTION, ARISING OUT OF OR IN"
COMMENT  "CONNECTION WITH THE USE OR PERFORMANCE OF THIS SOFTWARE."
COMMENT  ""
FONT -Misc-Fixed-Medium-R-Normal--20-200-75-75-C-100-windows-1251
SIZE 20 75 75
FONTBOUNDINGBOX 10 20 0 -5
STARTPROPERTIES 23
FONTNAME_REGISTRY ""
FOUNDRY "Misc"
FAMILY_NAME "Fixed"
WEIGHT_NAME "Medium"
SLANT "R"
SETWIDTH_NAME "Normal"
ADD_STYLE_NAME ""
PIXEL_SIZE 20
POINT_SIZE 200
RESOLUTION_X 75
RESOLUTION_Y 75
SPACING "C"
AVERAGE_WIDTH 100
CHARSET_REGISTRY "windows"
CHARSET_ENCODING "1251"
DEFAULT_CHAR 0
FONT_DESCENT 5

STARTCHAR null
ENCODING 0
SWIDTH 878 0
DWIDTH 10 0
BBX 10 20 0 -5
BITMAP
0000
0000
3F00
3F00
3F00
3F00
3F00
3F00
3F00
3F00
3F00
3F00
3F00
3F00
3F00
0000
0000
0000
0000
0000
ENDCHAR
STARTCHAR ctrlA
ENCODING 1
SWIDTH 878 0
DWIDTH 10 0
BBX 10 20 0 -5
BITMAP
0000
0000
0000
0000
0000
0C00
1E00
3F00
7F80
7F80
3F00
1E00
0C00
0000
0000
0000
0000
0000
0000
0000
ENDCHAR
STARTCHAR ctrlB
ENCODING 2
SWIDTH 878 0
DWIDTH 10 0
BBX 10 20 0 -5
BITMAP
5540
AA80
5540
AA80
5540
AA80
5540
AA80
5540
AA80
5540
AA80
5540
AA80
5540
AA80
5540
AA80
5540
AA80
ENDCHAR
STARTCHAR ctrlC
ENCODING 3
SWIDTH 878 0
DWIDTH 10 0
BBX 10 20 0 -5
BITMAP
0000
0000
0000
0000
6600
6600
6600
7E00
6600
6600
6600
0000
1F80
0600
0600
0600
0600
0600
0000
0000
ENDCHAR
STARTCHAR ctrlD
ENCODING 4
SWIDTH 878 0
DWIDTH 10 0
BBX 10 20 0 -5
BITMAP
0000
0000
0000
0000
7C00
6000
6000
7800
6000
6000
6000
0F80
0C00
0C00
0F00
0C00
0C00
0C00
0000
0000
ENDCHAR
STARTCHAR ctrlE
ENCODING 5
SWIDTH 878 0
DWIDTH 10 0
BBX 10 20 0 -5
BITMAP
0000
0000
0000
0000
3C00
6600
6000
6000
6600
3C00
0000
1F00
1980
1980
1F00
1E00
1B00
1980
0000
0000
ENDCHAR
STARTCHAR ctrlF
ENCODING 6
SWIDTH 878 0
DWIDTH 10 0
BBX 10 20 0 -5
BITMAP
0000
0000
0000
0000
3000
3000
3000
3000
3000
3E00
0000
0F80
0C00
0C00
0F00
0C00
0C00
0C00
0000
0000
ENDCHAR
STARTCHAR ctrlG
ENCODING 7
SWIDTH 878 0
DWIDTH 10 0
BBX 10 20 0 -5
BITMAP
0000
0000
1E00
3300
3300
3300
1E00
0000
0000
0000
0000
0000
0000
0000
0000
0000
0000
0000
0000
0000
ENDCHAR
STARTCHAR ctrlH
ENCODING 8
SWIDTH 878 0
DWIDTH 10 0
BBX 10 20 0 -5
BITMAP
0000
0000
0000
0000
0000
0000
0000
0000
0C00
0C00
7F80
0C00
0C00
0000
7F80
0000
0000
0000
0000
0000
ENDCHAR
STARTCHAR ctrlI
ENCODING 9
SWIDTH 878 0
DWIDTH 10 0
BBX 10 20 0 -5
BITMAP
0000
0000
0000
0000
6600
7600
7E00
7E00
6E00
6600
0000
0C00
0C00
0C00
0C00
0C00
0C00
0F80
0000
0000
ENDCHAR
STARTCHAR ctrlJ
ENCODING 10
SWIDTH 878 0
DWIDTH 10 0
BBX 10 20 0 -5
BITMAP
0000
0000
0000
0000
6600
6600
6600
3C00
3C00
1800
1800
0000
1F80
0600
0600
0600
0600
0600
0000
0000
ENDCHAR
STARTCHAR ldcornsqlr
ENCODING 11
SWIDTH 878 0
DWIDTH 10 0
BBX 10 20 0 -5
BITMAP
0C00
0C00
0C00
0C00
0C00
0C00
0C00
0C00
0C00
FC00
0000
0000
0000
0000
0000
0000
0000
0000
0000
0000
ENDCHAR
STARTCHAR ldcornsqur
ENCODING 12
SWIDTH 878 0
DWIDTH 10 0
BBX 10 20 0 -5
BITMAP
0000
0000
0000
0000
0000
0000
0000
0000
0000
FC00
0C00
0C00
0C00
0C00
0C00
0C00
0C00
0C00
0C00
0C00
ENDCHAR
STARTCHAR ldcornsqul
ENCODING 13
SWIDTH 878 0
DWIDTH 10 0
BBX 10 20 0 -5
BITMAP
0000
0000
0000
0000
0000
0000
0000
0000
0000
0FC0
0C00
0C00
0C00
0C00
0C00
0C00
0C00
0C00
0C00
0C00
ENDCHAR
STARTCHAR ldcornsqll
ENCODING 14
SWIDTH 878 0
DWIDTH 10 0
BBX 10 20 0 -5
BITMAP
0C00
0C00
0C00
0C00
0C00
0C00
0C00
0C00
0C00
0FC0
0000
0000
0000
0000
0000
0000
0000
0000
0000
0000
ENDCHAR
STARTCHAR ldcross
ENCODING 15
SWIDTH 878 0
DWIDTH 10 0
BBX 10 20 0 -5
BITMAP
0C00
0C00
0C00
0C00
0C00
0C00
0C00
0C00
0C00
FFC0
0C00
0C00
0C00
0C00
0C00
0C00
0C00
0C00
0C00
0C00
ENDCHAR
STARTCHAR ctrlP
ENCODING 16
SWIDTH 878 0
DWIDTH 10 0
BBX 10 20 0 -5
BITMAP
0000
0000
0000
0000
FFC0
0000
0000
0000
0000
0000
0000
0000
0000
0000
0000
0000
0000
0000
0000
0000
ENDCHAR
STARTCHAR ctrlQ
ENCODING 17
SWIDTH 878 0
DWIDTH 10 0
BBX 10 20 0 -5
BITMAP
0000
0000
0000
0000
0000
0000
FFC0
0000
0000
0000
0000
0000
0000
0000
0000
0000
0000
0000
0000
0000
ENDCHAR
STARTCHAR ldhorizontal
ENCODING 18
SWIDTH 878 0
DWIDTH 10 0
BBX 10 20 0 -5
BITMAP
0000
0000
0000
0000
0000
0000
0000
0000
0000
FFC0
0000
0000
0000
0000
0000
0000
0000
0000
0000
0000
ENDCHAR
STARTCHAR ctrlS
ENCODING 19
SWIDTH 878 0
DWIDTH 10 0
BBX 10 20 0 -5
BITMAP
0000
0000
0000
0000
0000
0000
0000
0000
0000
0000
0000
0000
FFC0
0000
0000
0000
0000
0000
0000
0000
ENDCHAR
STARTCHAR ctrlT
ENCODING 20
SWIDTH 878 0
DWIDTH 10 0
BBX 10 20 0 -5
BITMAP
0000
0000
0000
0000
0000
0000
0000
0000
0000
0000
0000
0000
0000
0000
0000
FFC0
0000
0000
0000
0000
ENDCHAR
STARTCHAR ldteelft
ENCODING 21
SWIDTH 878 0
DWIDTH 10 0
BBX 10 20 0 -5
BITMAP
0C00
0C00
0C00
0C00
0C00
0C00
0C00
0C00
0C00
0FC0
0C00
0C00
0C00
0C00
0C00
0C00
0C00
0C00
0C00
0C00
ENDCHAR
STARTCHAR ldteert
ENCODING 22
SWIDTH 878 0
DWIDTH 10 0
BBX 10 20 0 -5
BITMAP
0C00
0C00
0C00
0C00
0C00
0C00
0C00
0C00
0C00
FC00
0C00
0C00
0C00
0C00
0C00
0C00
0C00
0C00
0C00
0C00
ENDCHAR
STARTCHAR ldteebt
ENCODING 23
SWIDTH 878 0
DWIDTH 10 0
BBX 10 20 0 -5
BITMAP
0C00
0C00
0C00
0C00
0C00
0C00
0C00
0C00
0C00
FFC0
0000
0000
0000
0000
0000
0000
0000
0000
0000
0000
ENDCHAR
STARTCHAR ldteetp
ENCODING 24
SWIDTH 878 0
DWIDTH 10 0
BBX 10 20 0 -5
BITMAP
0000
0000
0000
0000
0000
0000
0000
0000
0000
FFC0
0C00
0C00
0C00
0C00
0C00
0C00
0C00
0C00
0C00
0C00
ENDCHAR
STARTCHAR ldvertical
ENCODING 25
SWIDTH 878 0
DWIDTH 10 0
BBX 10 20 0 -5
BITMAP
0C00
0C00
0C00
0C00
0C00
0C00
0C00
0C00
0C00
0C00
0C00
0C00
0C00
0C00
0C00
0C00
0C00
0C00
0C00
0C00
ENDCHAR
STARTCHAR ctrlZ
ENCODING 26
SWIDTH 878 0
DWIDTH 10 0
BBX 10 20 0 -5
BITMAP
0000
0000
0000
0000
0000
01C0
0700
1C00
7000
1C00
0700
01C0
0000
0000
7FC0
0000
0000
0000
0000
0000
ENDCHAR
STARTCHAR ctrlBRL
ENCODING 27
SWIDTH 878 0
DWIDTH 10 0
BBX 10 20 0 -5
BITMAP
0000
0000
0000
0000
0000
7000
1C00
0700
01C0
0700
1C00
7000
0000
0000
7FC0
0000
0000
0000
0000
0000
ENDCHAR
STARTCHAR ctrlBSLASH
ENCODING 28
SWIDTH 878 0
DWIDTH 10 0
BBX 10 20 0 -5
BITMAP
0000
0000
0000
0000
0000
0000
0000
0080
3F80
5B00
1B00
1B00
1B00
1B00
3300
0000
0000
0000
0000
0000
ENDCHAR
STARTCHAR ctrlBRR
ENCODING 29
SWIDTH 878 0
DWIDTH 10 0
BBX 10 20 0 -5
BITMAP
0000
0000
0000
0000
0000
0000
0180
0300
7FC0
0600
0C00
7FC0
1800
3000
0000
0000
0000
0000
0000
0000
ENDCHAR
STARTCHAR ctrlCARET
ENCODING 30
SWIDTH 878 0
DWIDTH 10 0
BBX 10 20 0 -5
BITMAP
0000
0000
0F00
1980
1980
1800
1800
1800
7E00
1800
1800
1800
7C00
56C0
7380
0000
0000
0000
0000
0000
ENDCHAR
STARTCHAR ctrlUND
ENCODING 31
SWIDTH 878 0
DWIDTH 10 0
BBX 10 20 0 -5
BITMAP
0000
0000
0000
0000
0000
0000
0000
0000
0C00
0C00
0000
0000
0000
0000
0000
0000
0000
0000
0000
0000
ENDCHAR
STARTCHAR space
ENCODING 32
SWIDTH 878 0
DWIDTH 10 0
BBX 10 20 0 -5
BITMAP
0000
0000
0000
0000
0000
0000
0000
0000
0000
0000
0000
0000
0000
0000
0000
0000
0000
0000
0000
0000
ENDCHAR
STARTCHAR exclam
ENCODING 33
SWIDTH 878 0
DWIDTH 10 0
BBX 10 20 0 -5
BITMAP
0000
0000
0C00
0C00
0C00
0C00
0C00
0C00
0C00
0C00
0C00
0C00
0000
0C00
0C00
0000
0000
0000
0000
0000
ENDCHAR
STARTCHAR quotedbl
ENCODING 34
SWIDTH 878 0
DWIDTH 10 0
BBX 10 20 0 -5
BITMAP
0000
0000
3300
3300
3300
1200
0000
0000
0000
0000
0000
0000
0000
0000
0000
0000
0000
0000
0000
0000
ENDCHAR
STARTCHAR numbersign
ENCODING 35
SWIDTH 878 0
DWIDTH 10 0
BBX 10 20 0 -5
BITMAP
0000
0000
0000
0D80
0D80
0D80
3FC0
1B00
1B00
1B00
7F80
3600
3600
3600
0000
0000
0000
0000
0000
0000
ENDCHAR
STARTCHAR dollar
ENCODING 36
SWIDTH 878 0
DWIDTH 10 0
BBX 10 20 0 -5
BITMAP
0000
0000
0C00
3F00
6D80
6C00
6C00
6C00
3F00
0D80
0D80
0D80
6D80
3F00
0C00
0000
0000
0000
0000
0000
ENDCHAR
STARTCHAR percent
ENCODING 37
SWIDTH 878 0
DWIDTH 10 0
BBX 10 20 0 -5
BITMAP
0000
0000
0000
3980
6D80
6F00
3B00
0600
0600
0C00
0C00
1B80
1EC0
36C0
3380
0000
0000
0000
0000
0000
ENDCHAR
STARTCHAR ampersand
ENCODING 38
SWIDTH 878 0
DWIDTH 10 0
BBX 10 20 0 -5
BITMAP
0000
0000
1C00
3600
3600
3600
3C00
1800
3800
6C00
66C0
6380
6300
7780
3CC0
0000
0000
0000
0000
0000
ENDCHAR
STARTCHAR quotesingle
ENCODING 39
SWIDTH 878 0
DWIDTH 10 0
BBX 10 20 0 -5
BITMAP
0000
0000
0C00
0C00
0C00
0800
0000
0000
0000
0000
0000
0000
0000
0000
0000
0000
0000
0000
0000
0000
ENDCHAR
STARTCHAR parenleft
ENCODING 40
SWIDTH 878 0
DWIDTH 10 0
BBX 10 20 0 -5
BITMAP
0000
0000
0300
0600
0C00
0C00
1800
1800
1800
1800
1800
0C00
0C00
0600
0300
0000
0000
0000
0000
0000
ENDCHAR
STARTCHAR parenright
ENCODING 41
SWIDTH 878 0
DWIDTH 10 0
BBX 10 20 0 -5
BITMAP
0000
0000
3000
1800
0C00
0C00
0600
0600
0600
0600
0600
0C00
0C00
1800
3000
0000
0000
0000
0000
0000
ENDCHAR
STARTCHAR asterisk
ENCODING 42
SWIDTH 878 0
DWIDTH 10 0
BBX 10 20 0 -5
BITMAP
0000
0000
0000
0000
0000
3300
3300
1E00
7F80
1E00
3300
3300
0000
0000
0000
0000
0000
0000
0000
0000
ENDCHAR
STARTCHAR plus
ENCODING 43
SWIDTH 878 0
DWIDTH 10 0
BBX 10 20 0 -5
BITMAP
0000
0000
0000
0000
0000
0C00
0C00
0C00
7F80
0C00
0C00
0C00
0000
0000
0000
0000
0000
0000
0000
0000
ENDCHAR
STARTCHAR comma
ENCODING 44
SWIDTH 878 0
DWIDTH 10 0
BBX 10 20 0 -5
BITMAP
0000
0000
0000
0000
0000
0000
0000
0000
0000
0000
0000
0000
0000
0E00
0E00
1800
0000
0000
0000
0000
ENDCHAR
STARTCHAR minus
ENCODING 45
SWIDTH 878 0
DWIDTH 10 0
BBX 10 20 0 -5
BITMAP
0000
0000
0000
0000
0000
0000
0000
0000
7F80
0000
0000
0000
0000
0000
0000
0000
0000
0000
0000
0000
ENDCHAR
STARTCHAR period
ENCODING 46
SWIDTH 878 0
DWIDTH 10 0
BBX 10 20 0 -5
BITMAP
0000
0000
0000
0000
0000
0000
0000
0000
0000
0000
0000
0000
0E00
0E00
0E00
0000
0000
0000
0000
0000
ENDCHAR
STARTCHAR slash
ENCODING 47
SWIDTH 878 0
DWIDTH 10 0
BBX 10 20 0 -5
BITMAP
0000
0000
0000
0180
0180
0300
0300
0600
0600
0C00
0C00
1800
1800
3000
3000
0000
0000
0000
0000
0000
ENDCHAR
STARTCHAR zero
ENCODING 48
SWIDTH 878 0
DWIDTH 10 0
BBX 10 20 0 -5
BITMAP
0000
0000
0C00
1E00
3300
3300
6180
6180
6180
6180
6180
3300
3300
1E00
0C00
0000
0000
0000
0000
0000
ENDCHAR
STARTCHAR one
ENCODING 49
SWIDTH 878 0
DWIDTH 10 0
BBX 10 20 0 -5
BITMAP
0000
0000
0C00
1C00
3C00
6C00
0C00
0C00
0C00
0C00
0C00
0C00
0C00
0C00
7F80
0000
0000
0000
0000
0000
ENDCHAR
STARTCHAR two
ENCODING 50
SWIDTH 878 0
DWIDTH 10 0
BBX 10 20 0 -5
BITMAP
0000
0000
1E00
3300
6180
6180
0180
0180
0300
0E00
1800
3000
6000
6000
7F80
0000
0000
0000
0000
0000
ENDCHAR
STARTCHAR three
ENCODING 51
SWIDTH 878 0
DWIDTH 10 0
BBX 10 20 0 -5
BITMAP
0000
0000
1E00
3300
6180
6180
0180
0300
0E00
0300
0180
6180
6180
3300
1E00
0000
0000
0000
0000
0000
ENDCHAR
STARTCHAR four
ENCODING 52
SWIDTH 878 0
DWIDTH 10 0
BBX 10 20 0 -5
BITMAP
0000
0000
0100
0300
0700
0F00
1B00
3300
6300
6300
7F80
0300
0300
0300
0300
0000
0000
0000
0000
0000
ENDCHAR
STARTCHAR five
ENCODING 53
SWIDTH 878 0
DWIDTH 10 0
BBX 10 20 0 -5
BITMAP
0000
0000
7F80
6000
6000
6000
6000
6E00
7300
0180
0180
0180
6180
3300
1E00
0000
0000
0000
0000
0000
ENDCHAR
STARTCHAR six
ENCODING 54
SWIDTH 878 0
DWIDTH 10 0
BBX 10 20 0 -5
BITMAP
0000
0000
1E00
3300
6100
6000
6000
6E00
7300
6180
6180
6180
6180
3300
1E00
0000
0000
0000
0000
0000
ENDCHAR
STARTCHAR seven
ENCODING 55
SWIDTH 878 0
DWIDTH 10 0
BBX 10 20 0 -5
BITMAP
0000
0000
7F80
0180
0180
0300
0300
0600
0600
0C00
0C00
1800
1800
3000
3000
0000
0000
0000
0000
0000
ENDCHAR
STARTCHAR eight
ENCODING 56
SWIDTH 878 0
DWIDTH 10 0
BBX 10 20 0 -5
BITMAP
0000
0000
1E00
3300
6180
6180
6180
3300
1E00
3300
6180
6180
6180
3300
1E00
0000
0000
0000
0000
0000
ENDCHAR
STARTCHAR nine
ENCODING 57
SWIDTH 878 0
DWIDTH 10 0
BBX 10 20 0 -5
BITMAP
0000
0000
1E00
3300
6180
6180
6180
6180
3380
1D80
0180
0180
2180
3300
1E00
0000
0000
0000
0000
0000
ENDCHAR
STARTCHAR colon
ENCODING 58
SWIDTH 878 0
DWIDTH 10 0
BBX 10 20 0 -5
BITMAP
0000
0000
0000
0000
0000
0E00
0E00
0000
0000
0000
0000
0E00
0E00
0000
0000
0000
0000
0000
0000
0000
ENDCHAR
STARTCHAR semicolon
ENCODING 59
SWIDTH 878 0
DWIDTH 10 0
BBX 10 20 0 -5
BITMAP
0000
0000
0000
0000
0000
0E00
0E00
0000
0000
0000
0000
0E00
0E00
1C00
0000
0000
0000
0000
0000
0000
ENDCHAR
STARTCHAR less
ENCODING 60
SWIDTH 878 0
DWIDTH 10 0
BBX 10 20 0 -5
BITMAP
0000
0000
0100
0300
0600
0C00
1800
3000
6000
3000
1800
0C00
0600
0300
0100
0000
0000
0000
0000
0000
ENDCHAR
STARTCHAR equal
ENCODING 61
SWIDTH 878 0
DWIDTH 10 0
BBX 10 20 0 -5
BITMAP
0000
0000
0000
0000
0000
0000
7F80
0000
0000
0000
0000
7F80
0000
0000
0000
0000
0000
0000
0000
0000
ENDCHAR
STARTCHAR greater
ENCODING 62
SWIDTH 878 0
DWIDTH 10 0
BBX 10 20 0 -5
BITMAP
0000
0000
2000
3000
1800
0C00
0600
0300
0180
0300
0600
0C00
1800
3000
2000
0000
0000
0000
0000
0000
ENDCHAR
STARTCHAR question
ENCODING 63
SWIDTH 878 0
DWIDTH 10 0
BBX 10 20 0 -5
BITMAP
0000
0000
1E00
3300
6180
6180
6180
0300
0600
0C00
0C00
0C00
0000
0C00
0C00
0000
0000
0000
0000
0000
ENDCHAR
STARTCHAR at
ENCODING 64
SWIDTH 878 0
DWIDTH 10 0
BBX 10 20 0 -5
BITMAP
0000
0000
1E00
3300
6180
6780
6F80
6D80
6D80
6D80
6F00
6600
6000
3180
1F00
0000
0000
0000
0000
0000
ENDCHAR
STARTCHAR A
ENCODING 65
SWIDTH 878 0
DWIDTH 10 0
BBX 10 20 0 -5
BITMAP
0000
0000
0C00
1E00
3300
3300
6180
6180
6180
7F80
6180
6180
6180
6180
6180
0000
0000
0000
0000
0000
ENDCHAR
STARTCHAR B
ENCODING 66
SWIDTH 878 0
DWIDTH 10 0
BBX 10 20 0 -5
BITMAP
0000
0000
7C00
6600
6300
6300
6300
6600
7E00
6300
6180
6180
6180
6300
7E00
0000
0000
0000
0000
0000
ENDCHAR
STARTCHAR C
ENCODING 67
SWIDTH 878 0
DWIDTH 10 0
BBX 10 20 0 -5
BITMAP
0000
0000
1E00
3300
6180
6000
6000
6000
6000
6000
6000
6000
6180
3300
1E00
0000
0000
0000
0000
0000
ENDCHAR
STARTCHAR D
ENCODING 68
SWIDTH 878 0
DWIDTH 10 0
BBX 10 20 0 -5
BITMAP
0000
0000
7E00
6300
6180
6180
6180
6180
6180
6180
6180
6180
6180
6300
7E00
0000
0000
0000
0000
0000
ENDCHAR
STARTCHAR E
ENCODING 69
SWIDTH 878 0
DWIDTH 10 0
BBX 10 20 0 -5
BITMAP
0000
0000
7F80
6000
6000
6000
6000
6000
7E00
6000
6000
6000
6000
6000
7F80
0000
0000
0000
0000
0000
ENDCHAR
STARTCHAR F
ENCODING 70
SWIDTH 878 0
DWIDTH 10 0
BBX 10 20 0 -5
BITMAP
0000
0000
7F80
6000
6000
6000
6000
6000
7E00
6000
6000
6000
6000
6000
6000
0000
0000
0000
0000
0000
ENDCHAR
STARTCHAR G
ENCODING 71
SWIDTH 878 0
DWIDTH 10 0
BBX 10 20 0 -5
BITMAP
0000
0000
1E00
3300
6180
6000
6000
6000
6780
6180
6180
6180
6180
3380
1E80
0000
0000
0000
0000
0000
ENDCHAR
STARTCHAR H
ENCODING 72
SWIDTH 878 0
DWIDTH 10 0
BBX 10 20 0 -5
BITMAP
0000
0000
6180
6180
6180
6180
6180
6180
7F80
6180
6180
6180
6180
6180
6180
0000
0000
0000
0000
0000
ENDCHAR
STARTCHAR I
ENCODING 73
SWIDTH 878 0
DWIDTH 10 0
BBX 10 20 0 -5
BITMAP
0000
0000
7F80
0C00
0C00
0C00
0C00
0C00
0C00
0C00
0C00
0C00
0C00
0C00
7F80
0000
0000
0000
0000
0000
ENDCHAR
STARTCHAR J
ENCODING 74
SWIDTH 878 0
DWIDTH 10 0
BBX 10 20 0 -5
BITMAP
0000
0000
0F80
0180
0180
0180
0180
0180
0180
0180
0180
6180
6180
3300
1E00
0000
0000
0000
0000
0000
ENDCHAR
STARTCHAR K
ENCODING 75
SWIDTH 878 0
DWIDTH 10 0
BBX 10 20 0 -5
BITMAP
0000
0000
6180
6180
6300
6300
6600
6600
7C00
6600
6600
6300
6300
6180
6180
0000
0000
0000
0000
0000
ENDCHAR
STARTCHAR L
ENCODING 76
SWIDTH 878 0
DWIDTH 10 0
BBX 10 20 0 -5
BITMAP
0000
0000
6000
6000
6000
6000
6000
6000
6000
6000
6000
6000
6000
6000
7F80
0000
0000
0000
0000
0000
ENDCHAR
STARTCHAR M
ENCODING 77
SWIDTH 878 0
DWIDTH 10 0
BBX 10 20 0 -5
BITMAP
0000
0000
6180
6180
7380
7380
7F80
6D80
6D80
6D80
6D80
6180
6180
6180
6180
0000
0000
0000
0000
0000
ENDCHAR
STARTCHAR N
ENCODING 78
SWIDTH 878 0
DWIDTH 10 0
BBX 10 20 0 -5
BITMAP
0000
0000
6180
7180
7180
7980
7980
6D80
6D80
6780
6780
6380
6380
6180
6180
0000
0000
0000
0000
0000
ENDCHAR
STARTCHAR O
ENCODING 79
SWIDTH 878 0
DWIDTH 10 0
BBX 10 20 0 -5
BITMAP
0000
0000
1E00
3300
6180
6180
6180
6180
6180
6180
6180
6180
6180
3300
1E00
0000
0000
0000
0000
0000
ENDCHAR
STARTCHAR P
ENCODING 80
SWIDTH 878 0
DWIDTH 10 0
BBX 10 20 0 -5
BITMAP
0000
0000
7E00
6300
6180
6180
6180
6180
6300
7E00
6000
6000
6000
6000
6000
0000
0000
0000
0000
0000
ENDCHAR
STARTCHAR Q
ENCODING 81
SWIDTH 878 0
DWIDTH 10 0
BBX 10 20 0 -5
BITMAP
0000
0000
1E00
3300
6180
6180
6180
6180
6180
6180
6180
6D80
6780
3300
1F00
0180
0000
0000
0000
0000
ENDCHAR
STARTCHAR R
ENCODING 82
SWIDTH 878 0
DWIDTH 10 0
BBX 10 20 0 -5
BITMAP
0000
0000
7E00
6300
6180
6180
6180
6180
6300
7E00
6600
6300
6300
6180
6180
0000
0000
0000
0000
0000
ENDCHAR
STARTCHAR S
ENCODING 83
SWIDTH 878 0
DWIDTH 10 0
BBX 10 20 0 -5
BITMAP
0000
0000
1E00
3300
6180
6000
6000
3000
1E00
0300
0180
0180
6180
3300
1E00
0000
0000
0000
0000
0000
ENDCHAR
STARTCHAR T
ENCODING 84
SWIDTH 878 0
DWIDTH 10 0
BBX 10 20 0 -5
BITMAP
0000
0000
7F80
0C00
0C00
0C00
0C00
0C00
0C00
0C00
0C00
0C00
0C00
0C00
0C00
0000
0000
0000
0000
0000
ENDCHAR
STARTCHAR U
ENCODING 85
SWIDTH 878 0
DWIDTH 10 0
BBX 10 20 0 -5
BITMAP
0000
0000
6180
6180
6180
6180
6180
6180
6180
6180
6180
6180
6180
3300
1E00
0000
0000
0000
0000
0000
ENDCHAR
STARTCHAR V
ENCODING 86
SWIDTH 878 0
DWIDTH 10 0
BBX 10 20 0 -5
BITMAP
0000
0000
6180
6180
6180
6180
3300
3300
3300
1E00
1E00
1E00
0C00
0C00
0C00
0000
0000
0000
0000
0000
ENDCHAR
STARTCHAR W
ENCODING 87
SWIDTH 878 0
DWIDTH 10 0
BBX 10 20 0 -5
BITMAP
0000
0000
6180
6180
6180
6180
6180
6D80
6D80
6D80
6D80
7380
7380
6180
6180
0000
0000
0000
0000
0000
ENDCHAR
STARTCHAR X
ENCODING 88
SWIDTH 878 0
DWIDTH 10 0
BBX 10 20 0 -5
BITMAP
0000
0000
6180
6180
3300
3300
1E00
1E00
0C00
1E00
1E00
3300
3300
6180
6180
0000
0000
0000
0000
0000
ENDCHAR
STARTCHAR Y
ENCODING 89
SWIDTH 878 0
DWIDTH 10 0
BBX 10 20 0 -5
BITMAP
0000
0000
6180
6180
3300
3300
1E00
1E00
0C00
0C00
0C00
0C00
0C00
0C00
0C00
0000
0000
0000
0000
0000
ENDCHAR
STARTCHAR Z
ENCODING 90
SWIDTH 878 0
DWIDTH 10 0
BBX 10 20 0 -5
BITMAP
0000
0000
7F80
0180
0180
0300
0600
0600
0C00
1800
1800
3000
6000
6000
7F80
0000
0000
0000
0000
0000
ENDCHAR
STARTCHAR bracketleft
ENCODING 91
SWIDTH 878 0
DWIDTH 10 0
BBX 10 20 0 -5
BITMAP
0000
0000
3F00
3000
3000
3000
3000
3000
3000
3000
3000
3000
3000
3000
3F00
0000
0000
0000
0000
0000
ENDCHAR
STARTCHAR backslash
ENCODING 92
SWIDTH 878 0
DWIDTH 10 0
BBX 10 20 0 -5
BITMAP
0000
0000
0000
3000
3000
1800
1800
0C00
0C00
0600
0600
0300
0300
0180
0180
0000
0000
0000
0000
0000
ENDCHAR
STARTCHAR bracketright
ENCODING 93
SWIDTH 878 0
DWIDTH 10 0
BBX 10 20 0 -5
BITMAP
0000
0000
3F00
0300
0300
0300
0300
0300
0300
0300
0300
0300
0300
0300
3F00
0000
0000
0000
0000
0000
ENDCHAR
STARTCHAR asciicircum
ENCODING 94
SWIDTH 878 0
DWIDTH 10 0
BBX 10 20 0 -5
BITMAP
0000
0000
0C00
1E00
3300
6180
0000
0000
0000
0000
0000
0000
0000
0000
0000
0000
0000
0000
0000
0000
ENDCHAR
STARTCHAR underscore
ENCODING 95
SWIDTH 878 0
DWIDTH 10 0
BBX 10 20 0 -5
BITMAP
0000
0000
0000
0000
0000
0000
0000
0000
0000
0000
0000
0000
0000
0000
0000
7FC0
0000
0000
0000
0000
ENDCHAR
STARTCHAR grave
ENCODING 96
SWIDTH 878 0
DWIDTH 10 0
BBX 10 20 0 -5
BITMAP
0000
0000
1800
0C00
0600
0000
0000
0000
0000
0000
0000
0000
0000
0000
0000
0000
0000
0000
0000
0000
ENDCHAR
STARTCHAR a
ENCODING 97
SWIDTH 878 0
DWIDTH 10 0
BBX 10 20 0 -5
BITMAP
0000
0000
0000
0000
0000
0000
0000
1F00
3180
0180
3F80
6180
6180
6180
3E80
0000
0000
0000
0000
0000
ENDCHAR
STARTCHAR b
ENCODING 98
SWIDTH 878 0
DWIDTH 10 0
BBX 10 20 0 -5
BITMAP
0000
0000
6000
6000
6000
6000
6000
6E00
7300
6180
6180
6180
6180
7300
6E00
0000
0000
0000
0000
0000
ENDCHAR
STARTCHAR c
ENCODING 99
SWIDTH 878 0
DWIDTH 10 0
BBX 10 20 0 -5
BITMAP
0000
0000
0000
0000
0000
0000
0000
1F00
3180
6000
6000
6000
6000
3180
1F00
0000
0000
0000
0000
0000
ENDCHAR
STARTCHAR d
ENCODING 100
SWIDTH 878 0
DWIDTH 10 0
BBX 10 20 0 -5
BITMAP
0000
0000
0180
0180
0180
0180
0180
1D80
3380
6180
6180
6180
6180
3380
1D80
0000
0000
0000
0000
0000
ENDCHAR
STARTCHAR e
ENCODING 101
SWIDTH 878 0
DWIDTH 10 0
BBX 10 20 0 -5
BITMAP
0000
0000
0000
0000
0000
0000
0000
1E00
3300
6180
7F80
6000
6000
3180
1F00
0000
0000
0000
0000
0000
ENDCHAR
STARTCHAR f
ENCODING 102
SWIDTH 878 0
DWIDTH 10 0
BBX 10 20 0 -5
BITMAP
0000
0000
0F00
1980
1980
1800
1800
1800
1800
7E00
1800
1800
1800
1800
1800
0000
0000
0000
0000
0000
ENDCHAR
STARTCHAR g
ENCODING 103
SWIDTH 878 0
DWIDTH 10 0
BBX 10 20 0 -5
BITMAP
0000
0000
0000
0000
0000
0000
0000
3E80
6380
6300
6300
6300
3E00
6000
3F00
6180
6180
6180
3F00
0000
ENDCHAR
STARTCHAR h
ENCODING 104
SWIDTH 878 0
DWIDTH 10 0
BBX 10 20 0 -5
BITMAP
0000
0000
6000
6000
6000
6000
6000
6E00
7300
6180
6180
6180
6180
6180
6180
0000
0000
0000
0000
0000
ENDCHAR
STARTCHAR i
ENCODING 105
SWIDTH 878 0
DWIDTH 10 0
BBX 10 20 0 -5
BITMAP
0000
0000
0000
0000
0C00
0C00
0000
3C00
0C00
0C00
0C00
0C00
0C00
0C00
7F80
0000
0000
0000
0000
0000
ENDCHAR
STARTCHAR j
ENCODING 106
SWIDTH 878 0
DWIDTH 10 0
BBX 10 20 0 -5
BITMAP
0000
0000
0000
0000
0180
0180
0000
0780
0180
0180
0180
0180
0180
0180
0180
3180
3180
3180
1F00
0000
ENDCHAR
STARTCHAR k
ENCODING 107
SWIDTH 878 0
DWIDTH 10 0
BBX 10 20 0 -5
BITMAP
0000
0000
6000
6000
6000
6000
6000
6300
6600
6C00
7800
7C00
6600
6300
6180
0000
0000
0000
0000
0000
ENDCHAR
STARTCHAR l
ENCODING 108
SWIDTH 878 0
DWIDTH 10 0
BBX 10 20 0 -5
BITMAP
0000
0000
3C00
0C00
0C00
0C00
0C00
0C00
0C00
0C00
0C00
0C00
0C00
0C00
7F80
0000
0000
0000
0000
0000
ENDCHAR
STARTCHAR m
ENCODING 109
SWIDTH 878 0
DWIDTH 10 0
BBX 10 20 0 -5
BITMAP
0000
0000
0000
0000
0000
0000
0000
5B00
7F80
6D80
6D80
6D80
6D80
6D80
6D80
0000
0000
0000
0000
0000
ENDCHAR
STARTCHAR n
ENCODING 110
SWIDTH 878 0
DWIDTH 10 0
BBX 10 20 0 -5
BITMAP
0000
0000
0000
0000
0000
0000
0000
6E00
7300
6180
6180
6180
6180
6180
6180
0000
0000
0000
0000
0000
ENDCHAR
STARTCHAR o
ENCODING 111
SWIDTH 878 0
DWIDTH 10 0
BBX 10 20 0 -5
BITMAP
0000
0000
0000
0000
0000
0000
0000
1E00
3300
6180
6180
6180
6180
3300
1E00
0000
0000
0000
0000
0000
ENDCHAR
STARTCHAR p
ENCODING 112
SWIDTH 878 0
DWIDTH 10 0
BBX 10 20 0 -5
BITMAP
0000
0000
0000
0000
0000
0000
0000
6E00
7300
6180
6180
6180
6180
7300
6E00
6000
6000
6000
6000
0000
ENDCHAR
STARTCHAR q
ENCODING 113
SWIDTH 878 0
DWIDTH 10 0
BBX 10 20 0 -5
BITMAP
0000
0000
0000
0000
0000
0000
0000
1D80
3380
6180
6180
6180
6180
3380
1D80
0180
0180
0180
0180
0000
ENDCHAR
STARTCHAR r
ENCODING 114
SWIDTH 878 0
DWIDTH 10 0
BBX 10 20 0 -5
BITMAP
0000
0000
0000
0000
0000
0000
0000
6F00
3980
3000
3000
3000
3000
3000
3000
0000
0000
0000
0000
0000
ENDCHAR
STARTCHAR s
ENCODING 115
SWIDTH 878 0
DWIDTH 10 0
BBX 10 20 0 -5
BITMAP
0000
0000
0000
0000
0000
0000
0000
3F00
6180
6000
3F00
0180
0180
6180
3F00
0000
0000
0000
0000
0000
ENDCHAR
STARTCHAR t
ENCODING 116
SWIDTH 878 0
DWIDTH 10 0
BBX 10 20 0 -5
BITMAP
0000
0000
0000
0000
1800
1800
1800
7E00
1800
1800
1800
1800
1800
1980
0F00
0000
0000
0000
0000
0000
ENDCHAR
STARTCHAR u
ENCODING 117
SWIDTH 878 0
DWIDTH 10 0
BBX 10 20 0 -5
BITMAP
0000
0000
0000
0000
0000
0000
0000
6180
6180
6180
6180
6180
6180
3380
1D80
0000
0000
0000
0000
0000
ENDCHAR
STARTCHAR v
ENCODING 118
SWIDTH 878 0
DWIDTH 10 0
BBX 10 20 0 -5
BITMAP
0000
0000
0000
0000
0000
0000
0000
6180
6180
3300
3300
1E00
1E00
0C00
0C00
0000
0000
0000
0000
0000
ENDCHAR
STARTCHAR w
ENCODING 119
SWIDTH 878 0
DWIDTH 10 0
BBX 10 20 0 -5
BITMAP
0000
0000
0000
0000
0000
0000
0000
6180
6180
6180
6D80
6D80
6D80
7F80
3300
0000
0000
0000
0000
0000
ENDCHAR
STARTCHAR x
ENCODING 120
SWIDTH 878 0
DWIDTH 10 0
BBX 10 20 0 -5
BITMAP
0000
0000
0000
0000
0000
0000
0000
6180
3300
1E00
0C00
0C00
1E00
3300
6180
0000
0000
0000
0000
0000
ENDCHAR
STARTCHAR y
ENCODING 121
SWIDTH 878 0
DWIDTH 10 0
BBX 10 20 0 -5
BITMAP
0000
0000
0000
0000
0000
0000
0000
6180
6180
6180
6180
6180
6180
3380
1D80
0180
6180
3300
1E00
0000
ENDCHAR
STARTCHAR z
ENCODING 122
SWIDTH 878 0
DWIDTH 10 0
BBX 10 20 0 -5
BITMAP
0000
0000
0000
0000
0000
0000
0000
3F80
0180
0300
0600
0C00
1800
3000
3F80
0000
0000
0000
0000
0000
ENDCHAR
STARTCHAR braceleft
ENCODING 123
SWIDTH 878 0
DWIDTH 10 0
BBX 10 20 0 -5
BITMAP
0000
0000
0780
0C00
0C00
0C00
0C00
0C00
7800
0C00
0C00
0C00
0C00
0C00
0780
0000
0000
0000
0000
0000
ENDCHAR
STARTCHAR bar
ENCODING 124
SWIDTH 878 0
DWIDTH 10 0
BBX 10 20 0 -5
BITMAP
0000
0000
0C00
0C00
0C00
0C00
0C00
0C00
0C00
0C00
0C00
0C00
0C00
0C00
0C00
0000
0000
0000
0000
0000
ENDCHAR
STARTCHAR braceright
ENCODING 125
SWIDTH 878 0
DWIDTH 10 0
BBX 10 20 0 -5
BITMAP
0000
0000
7800
0C00
0C00
0C00
0C00
0C00
0780
0C00
0C00
0C00
0C00
0C00
7800
0000
0000
0000
0000
0000
ENDCHAR
STARTCHAR asciitilde
ENCODING 126
SWIDTH 878 0
DWIDTH 10 0
BBX 10 20 0 -5
BITMAP
0000
0000
3980
6D80
6700
0000
0000
0000
0000
0000
0000
0000
0000
0000
0000
0000
0000
0000
0000
0000
ENDCHAR
STARTCHAR delete
ENCODING 127
SWIDTH 878 0
DWIDTH 10 0
BBX 10 20 0 -5
BITMAP
0000
0000
0000
0000
0000
0000
0000
0000
0000
0000
0000
0000
0000
0000
0000
0000
0000
0000
0000
0000
ENDCHAR
STARTCHAR afii10051
ENCODING 128
SWIDTH 878 0
DWIDTH 10 0
BBX 10 20 0 -5
BITMAP
0000
0000
FC00
6000
6000
6000
6000
7E00
6300
6180
6180
6180
6180
6180
6700
0000
0000
0000
0000
0000
ENDCHAR
STARTCHAR afii10052
ENCODING 129
SWIDTH 878 0
DWIDTH 10 0
BBX 10 20 0 -5
BITMAP
0000
0000
0600
0C00
1800
0000
7F80
6000
6000
6000
6000
6000
6000
6000
6000
0000
0000
0000
0000
0000
ENDCHAR
STARTCHAR quotesinglbase
ENCODING 130
SWIDTH 878 0
DWIDTH 10 0
BBX 10 20 0 -5
BITMAP
0000
0000
0000
0000
0000
0000
0000
0000
0000
0000
0000
0000
0000
0F00
0E00
1800
0000
0000
0000
0000
ENDCHAR
STARTCHAR afii10100
ENCODING 131
SWIDTH 878 0
DWIDTH 10 0
BBX 10 20 0 -5
BITMAP
0000
0000
0300
0600
0C00
0000
0000
3F80
3000
3000
3000
3000
3000
3000
3000
0000
0000
0000
0000
0000
ENDCHAR
STARTCHAR quotedblbase
ENCODING 132
SWIDTH 878 0
DWIDTH 10 0
BBX 10 20 0 -5
BITMAP
0000
0000
0000
0000
0000
0000
0000
0000
0000
0000
0000
0000
0000
3B80
3300
6600
0000
0000
0000
0000
ENDCHAR
STARTCHAR ellipsis
ENCODING 133
SWIDTH 878 0
DWIDTH 10 0
BBX 10 20 0 -5
BITMAP
0000
0000
0000
0000
0000
0000
0000
0000
0000
0000
0000
0000
0000
4900
4900
0000
0000
0000
0000
0000
ENDCHAR
STARTCHAR dagger
ENCODING 134
SWIDTH 878 0
DWIDTH 10 0
BBX 10 20 0 -5
BITMAP
0000
0000
0C00
0C00
0C00
0C00
7F80
0C00
0C00
0C00
0C00
0C00
0C00
0C00
0C00
0C00
0C00
0000
0000
0000
ENDCHAR
STARTCHAR daggerdbl
ENCODING 135
SWIDTH 878 0
DWIDTH 10 0
BBX 10 20 0 -5
BITMAP
0000
0000
0C00
0C00
0C00
0C00
7F80
0C00
0C00
0C00
0C00
7F80
0C00
0C00
0C00
0C00
0C00
0000
0000
0000
ENDCHAR
STARTCHAR Euro
ENCODING 136
SWIDTH 878 0
DWIDTH 10 0
BBX 10 20 0 -5
BITMAP
0000
0000
0E00
1B00
3180
3000
3000
7E00
3000
7C00
3000
3000
3180
1B00
0E00
0000
0000
0000
0000
0000
ENDCHAR
STARTCHAR perthousand
ENCODING 137
SWIDTH 878 0
DWIDTH 10 0
BBX 10 20 0 -5
BITMAP
0000
0000
0000
7040
D8C0
D980
7300
0E00
1C00
3000
6000
DB80
B6C0
36C0
1B80
0000
0000
0000
0000
0000
ENDCHAR
STARTCHAR afii10058
ENCODING 138
SWIDTH 878 0
DWIDTH 10 0
BBX 10 20 0 -5
BITMAP
0000
0000
3C00
6C00
6C00
6C00
6C00
6F00
6D80
6D80
6D80
6D80
6D80
6D80
CF00
0000
0000
0000
0000
0000
ENDCHAR
STARTCHAR guilsinglleft
ENCODING 139
SWIDTH 878 0
DWIDTH 10 0
BBX 10 20 0 -5
BITMAP
0000
0000
0000
0000
0100
0300
0600
0C00
1800
3000
1800
0C00
0600
0300
0100
0000
0000
0000
0000
0000
ENDCHAR
STARTCHAR afii10059
ENCODING 140
SWIDTH 878 0
DWIDTH 10 0
BBX 10 20 0 -5
BITMAP
0000
0000
6C00
6C00
6C00
6C00
6C00
7F00
6D80
6D80
6D80
6D80
6D80
6D80
6F00
0000
0000
0000
0000
0000
ENDCHAR
STARTCHAR afii10061
ENCODING 141
SWIDTH 878 0
DWIDTH 10 0
BBX 10 20 0 -5
BITMAP
0000
0000
0600
0C00
1800
0000
6180
6300
6600
6C00
7800
6C00
6600
6300
6180
0000
0000
0000
0000
0000
ENDCHAR
STARTCHAR afii10060
ENCODING 142
SWIDTH 878 0
DWIDTH 10 0
BBX 10 20 0 -5
BITMAP
0000
0000
FC00
6000
6000
6000
6000
7E00
6300
6180
6180
6180
6180
6180
6180
0000
0000
0000
0000
0000
ENDCHAR
STARTCHAR afii10145
ENCODING 143
SWIDTH 878 0
DWIDTH 10 0
BBX 10 20 0 -5
BITMAP
0000
0000
6180
6180
6180
6180
6180
6180
6180
6180
6180
6180
6180
6180
7F80
0C00
0C00
0000
0000
0000
ENDCHAR
STARTCHAR afii10099
ENCODING 144
SWIDTH 878 0
DWIDTH 10 0
BBX 10 20 0 -5
BITMAP
0000
0000
6000
6000
F800
6000
6000
6E00
7300
6180
6180
6180
6180
6180
6180
0180
0180
0300
0E00
0000
ENDCHAR
STARTCHAR quoteleft
ENCODING 145
SWIDTH 878 0
DWIDTH 10 0
BBX 10 20 0 -5
BITMAP
0000
0000
3C00
1C00
0600
0000
0000
0000
0000
0000
0000
0000
0000
0000
0000
0000
0000
0000
0000
0000
ENDCHAR
STARTCHAR quoteright
ENCODING 146
SWIDTH 878 0
DWIDTH 10 0
BBX 10 20 0 -5
BITMAP
0000
0000
0F00
0E00
1800
0000
0000
0000
0000
0000
0000
0000
0000
0000
0000
0000
0000
0000
0000
0000
ENDCHAR
STARTCHAR quotedblleft
ENCODING 147
SWIDTH 878 0
DWIDTH 10 0
BBX 10 20 0 -5
BITMAP
0000
0000
1980
3300
7700
0000
0000
0000
0000
0000
0000
0000
0000
0000
0000
0000
0000
0000
0000
0000
ENDCHAR
STARTCHAR quotedblright
ENCODING 148
SWIDTH 878 0
DWIDTH 10 0
BBX 10 20 0 -5
BITMAP
0000
0000
3B80
3300
6600
0000
0000
0000
0000
0000
0000
0000
0000
0000
0000
0000
0000
0000
0000
0000
ENDCHAR
STARTCHAR bullet
ENCODING 149
SWIDTH 878 0
DWIDTH 10 0
BBX 10 20 0 -5
BITMAP
0000
0000
0000
0000
0000
0000
0E00
1F00
1F00
1F00
0E00
0000
0000
0000
0000
0000
0000
0000
0000
0000
ENDCHAR
STARTCHAR endash
ENCODING 150
SWIDTH 878 0
DWIDTH 10 0
BBX 10 20 0 -5
BITMAP
0000
0000
0000
0000
0000
0000
0000
0000
7F80
0000
0000
0000
0000
0000
0000
0000
0000
0000
0000
0000
ENDCHAR
STARTCHAR emdash
ENCODING 151
SWIDTH 878 0
DWIDTH 10 0
BBX 10 20 0 -5
BITMAP
0000
0000
0000
0000
0000
0000
0000
0000
FFC0
0000
0000
0000
0000
0000
0000
0000
0000
0000
0000
0000
ENDCHAR
STARTCHAR trademark
ENCODING 153
SWIDTH 878 0
DWIDTH 10 0
BBX 10 20 0 -5
BITMAP
0000
0000
F480
6780
6780
6480
0000
0000
0000
0000
0000
0000
0000
0000
0000
0000
0000
0000
0000
0000
ENDCHAR
STARTCHAR afii10106
ENCODING 154
SWIDTH 878 0
DWIDTH 10 0
BBX 10 20 0 -5
BITMAP
0000
0000
0000
0000
0000
0000
0000
3C00
6C00
6C00
6F00
6D80
6D80
6D80
CF00
0000
0000
0000
0000
0000
ENDCHAR
STARTCHAR guilsinglright
ENCODING 155
SWIDTH 878 0
DWIDTH 10 0
BBX 10 20 0 -5
BITMAP
0000
0000
0000
0000
2000
3000
1800
0C00
0600
0300
0600
0C00
1800
3000
2000
0000
0000
0000
0000
0000
ENDCHAR
STARTCHAR afii10107
ENCODING 156
SWIDTH 878 0
DWIDTH 10 0
BBX 10 20 0 -5
BITMAP
0000
0000
0000
0000
0000
0000
0000
6C00
6C00
6C00
7F00
6D80
6D80
6D80
6F00
0000
0000
0000
0000
0000
ENDCHAR
STARTCHAR afii10109
ENCODING 157
SWIDTH 878 0
DWIDTH 10 0
BBX 10 20 0 -5
BITMAP
0000
0000
0600
0C00
1800
0000
0000
6300
6600
6C00
7800
7C00
6600
6300
6180
0000
0000
0000
0000
0000
ENDCHAR
STARTCHAR afii10108
ENCODING 158
SWIDTH 878 0
DWIDTH 10 0
BBX 10 20 0 -5
BITMAP
0000
0000
6000
6000
F800
6000
6000
6E00
7300
6180
6180
6180
6180
6180
6180
0000
0000
0000
0000
0000
ENDCHAR
STARTCHAR afii10193
ENCODING 159
SWIDTH 878 0
DWIDTH 10 0
BBX 10 20 0 -5
BITMAP
0000
0000
0000
0000
0000
0000
0000
6180
6180
6180
6180
6180
6180
6180
7F80
0C00
0C00
0000
0000
0000
ENDCHAR
STARTCHAR space
ENCODING 160
SWIDTH 878 0
DWIDTH 10 0
BBX 10 20 0 -5
BITMAP
0000
0000
0000
0000
0000
0000
0000
0000
0000
0000
0000
0000
0000
0000
0000
0000
0000
0000
0000
0000
ENDCHAR
STARTCHAR afii10062
ENCODING 161
SWIDTH 878 0
DWIDTH 10 0
BBX 10 20 0 -5
BITMAP
0000
0000
1E00
0000
6180
6180
6180
6180
3380
1F80
0180
0180
6180
3300
1E00
0000
0000
0000
0000
0000
ENDCHAR
STARTCHAR afii10110
ENCODING 162
SWIDTH 878 0
DWIDTH 10 0
BBX 10 20 0 -5
BITMAP
0000
0000
0000
0000
3300
1E00
0000
6180
6180
6180
6180
6180
6180
3380
1D80
0180
6180
3300
1E00
0000
ENDCHAR
STARTCHAR afii10057
ENCODING 163
SWIDTH 878 0
DWIDTH 10 0
BBX 10 20 0 -5
BITMAP
0000
0000
0F80
0180
0180
0180
0180
0180
0180
0180
0180
6180
6180
3300
1E00
0000
0000
0000
0000
0000
ENDCHAR
STARTCHAR currency
ENCODING 164
SWIDTH 878 0
DWIDTH 10 0
BBX 10 20 0 -5
BITMAP
0000
0000
0000
0000
0000
4040
2E80
1F00
3180
3180
3180
1F00
2E80
4040
0000
0000
0000
0000
0000
0000
ENDCHAR
STARTCHAR afii10050
ENCODING 165
SWIDTH 878 0
DWIDTH 10 0
BBX 10 20 0 -5
BITMAP
0000
0000
0180
0180
7F80
6000
6000
6000
6000
6000
6000
6000
6000
6000
6000
0000
0000
0000
0000
0000
ENDCHAR
STARTCHAR brokenbar
ENCODING 166
SWIDTH 878 0
DWIDTH 10 0
BBX 10 20 0 -5
BITMAP
0000
0000
0C00
0C00
0C00
0C00
0C00
0000
0000
0000
0C00
0C00
0C00
0C00
0C00
0000
0000
0000
0000
0000
ENDCHAR
STARTCHAR section
ENCODING 167
SWIDTH 878 0
DWIDTH 10 0
BBX 10 20 0 -5
BITMAP
0000
0000
3E00
6300
6000
7000
7800
4C00
6600
3300
1900
0F00
0300
6300
3E00
0000
0000
0000
0000
0000
ENDCHAR
STARTCHAR afii10023
ENCODING 168
SWIDTH 878 0
DWIDTH 10 0
BBX 10 20 0 -5
BITMAP
0000
0000
3300
3300
0000
0000
7f80
6000
6000
6000
7e00
6000
6000
6000
7f80
0000
0000
0000
0000
0000
ENDCHAR
STARTCHAR copyright
ENCODING 169
SWIDTH 878 0
DWIDTH 10 0
BBX 10 20 0 -5
BITMAP
0000
0000
0000
0000
1E00
3300
6180
5E80
5280
5080
5280
5E80
6180
3300
1E00
0000
0000
0000
0000
0000
ENDCHAR
STARTCHAR afii10053
ENCODING 170
SWIDTH 878 0
DWIDTH 10 0
BBX 10 20 0 -5
BITMAP
0000
0000
1E00
3300
6180
6000
6000
6000
7C00
6000
6000
6000
6180
3300
1E00
0000
0000
0000
0000
0000
ENDCHAR
STARTCHAR guillemotleft
ENCODING 171
SWIDTH 878 0
DWIDTH 10 0
BBX 10 20 0 -5
BITMAP
0000
0000
0000
0000
0480
0D80
1B00
3600
6C00
D800
6C00
3600
1B00
0D80
0480
0000
0000
0000
0000
0000
ENDCHAR
STARTCHAR logicalnot
ENCODING 172
SWIDTH 878 0
DWIDTH 10 0
BBX 10 20 0 -5
BITMAP
0000
0000
0000
0000
0000
0000
0000
7F80
7F80
0180
0180
0000
0000
0000
0000
0000
0000
0000
0000
0000
ENDCHAR
STARTCHAR hyphen
ENCODING 173
SWIDTH 878 0
DWIDTH 10 0
BBX 10 20 0 -5
BITMAP
0000
0000
0000
0000
0000
0000
0000
3F00
3F00
0000
0000
0000
0000
0000
0000
0000
0000
0000
0000
0000
ENDCHAR
STARTCHAR registered
ENCODING 174
SWIDTH 878 0
DWIDTH 10 0
BBX 10 20 0 -5
BITMAP
0000
0000
0000
0000
1E00
3300
6180
5E80
5280
5E80
5480
5680
6180
3300
1E00
0000
0000
0000
0000
0000
ENDCHAR
STARTCHAR afii10056
ENCODING 175
SWIDTH 878 0
DWIDTH 10 0
BBX 10 20 0 -5
BITMAP
0000
0000
3300
3300
0000
0000
3f00
0c00
0c00
0c00
0c00
0c00
0c00
0c00
3f00
0000
0000
0000
0000
0000
ENDCHAR
STARTCHAR degree
ENCODING 176
SWIDTH 878 0
DWIDTH 10 0
BBX 10 20 0 -5
BITMAP
0000
0000
0C00
1E00
3300
3300
1E00
0C00
0000
0000
0000
0000
0000
0000
0000
0000
0000
0000
0000
0000
ENDCHAR
STARTCHAR plusminus
ENCODING 177
SWIDTH 878 0
DWIDTH 10 0
BBX 10 20 0 -5
BITMAP
0000
0000
0000
0000
0C00
0C00
7F80
7F80
0C00
0C00
0000
7F80
7F80
0000
0000
0000
0000
0000
0000
0000
ENDCHAR
STARTCHAR afii10055
ENCODING 178
SWIDTH 878 0
DWIDTH 10 0
BBX 10 20 0 -5
BITMAP
0000
0000
7F80
0C00
0C00
0C00
0C00
0C00
0C00
0C00
0C00
0C00
0C00
0C00
7F80
0000
0000
0000
0000
0000
ENDCHAR
STARTCHAR afii10103
ENCODING 179
SWIDTH 878 0
DWIDTH 10 0
BBX 10 20 0 -5
BITMAP
0000
0000
0000
0000
0C00
0C00
0000
3C00
0C00
0C00
0C00
0C00
0C00
0C00
7F80
0000
0000
0000
0000
0000
ENDCHAR
STARTCHAR afii10098
ENCODING 180
SWIDTH 878 0
DWIDTH 10 0
BBX 10 20 0 -5
BITMAP
0000
0000
0000
0000
0000
0180
0180
3F80
3000
3000
3000
3000
3000
3000
3000
0000
0000
0000
0000
0000
ENDCHAR
STARTCHAR mu
ENCODING 181
SWIDTH 878 0
DWIDTH 10 0
BBX 10 20 0 -5
BITMAP
0000
0000
0000
0000
0000
0000
0000
0000
6300
6300
6300
6300
6300
7700
7D00
6000
6000
6000
0000
0000
ENDCHAR
STARTCHAR paragraph
ENCODING 182
SWIDTH 878 0
DWIDTH 10 0
BBX 10 20 0 -5
BITMAP
0000
0000
1F80
3F80
7D80
7D80
7D80
3D80
1D80
0580
0580
0580
0580
0580
0580
0000
0000
0000
0000
0000
ENDCHAR
STARTCHAR periodcentered
ENCODING 183
SWIDTH 878 0
DWIDTH 10 0
BBX 10 20 0 -5
BITMAP
0000
0000
0000
0000
0000
0000
0000
0E00
0E00
0E00
0000
0000
0000
0000
0000
0000
0000
0000
0000
0000
ENDCHAR
STARTCHAR afii10071
ENCODING 184
SWIDTH 878 0
DWIDTH 10 0
BBX 10 20 0 -5
BITMAP
0000
0000
3300
3300
0000
0000
0000
1e00
3300
6180
7f80
6000
6000
3180
1f00
0000
0000
0000
0000
0000
ENDCHAR
STARTCHAR afii61352
ENCODING 185
SWIDTH 878 0
DWIDTH 10 0
BBX 10 20 0 -5
BITMAP
0000
0000
6600
6600
6600
7600
7600
7E00
7F80
6E80
6E80
6780
6600
6780
6600
0000
0000
0000
0000
0000
ENDCHAR
STARTCHAR afii10101
ENCODING 186
SWIDTH 878 0
DWIDTH 10 0
BBX 10 20 0 -5
BITMAP
0000
0000
0000
0000
0000
0000
0000
1F00
3180
6000
7C00
6000
6000
3180
1F00
0000
0000
0000
0000
0000
ENDCHAR
STARTCHAR guillemotright
ENCODING 187
SWIDTH 878 0
DWIDTH 10 0
BBX 10 20 0 -5
BITMAP
0000
0000
0000
0000
4800
6C00
3600
1B00
0D80
06C0
0D80
1B00
3600
6C00
4800
0000
0000
0000
0000
0000
ENDCHAR
STARTCHAR afii10105
ENCODING 188
SWIDTH 878 0
DWIDTH 10 0
BBX 10 20 0 -5
BITMAP
0000
0000
0000
0000
0180
0180
0000
0780
0180
0180
0180
0180
0180
0180
0180
3180
3180
3180
1F00
0000
ENDCHAR
STARTCHAR afii10054
ENCODING 189
SWIDTH 878 0
DWIDTH 10 0
BBX 10 20 0 -5
BITMAP
0000
0000
1E00
3300
6180
6000
6000
3000
1E00
0300
0180
0180
6180
3300
1E00
0000
0000
0000
0000
0000
ENDCHAR
STARTCHAR afii10102
ENCODING 190
SWIDTH 878 0
DWIDTH 10 0
BBX 10 20 0 -5
BITMAP
0000
0000
0000
0000
0000
0000
0000
3F00
6180
6000
3F00
0180
0180
6180
3F00
0000
0000
0000
0000
0000
ENDCHAR
STARTCHAR afii10104
ENCODING 191
SWIDTH 878 0
DWIDTH 10 0
BBX 10 20 0 -5
BITMAP
0000
0000
3300
3300
0000
0000
0000
3c00
0c00
0c00
0c00
0c00
0c00
0c00
7f80
0000
0000
0000
0000
0000
ENDCHAR
STARTCHAR afii10017
ENCODING 192
SWIDTH 878 0
DWIDTH 10 0
BBX 10 20 0 -5
BITMAP
0000
0000
0C00
1E00
3300
3300
6180
6180
6180
7F80
6180
6180
6180
6180
6180
0000
0000
0000
0000
0000
ENDCHAR
STARTCHAR afii10018
ENCODING 193
SWIDTH 878 0
DWIDTH 10 0
BBX 10 20 0 -5
BITMAP
0000
0000
7F80
6000
6000
6000
6000
7E00
6300
6180
6180
6180
6180
6300
7E00
0000
0000
0000
0000
0000
ENDCHAR
STARTCHAR afii10019
ENCODING 194
SWIDTH 878 0
DWIDTH 10 0
BBX 10 20 0 -5
BITMAP
0000
0000
7C00
6600
6300
6300
6300
6600
7E00
6300
6180
6180
6180
6300
7E00
0000
0000
0000
0000
0000
ENDCHAR
STARTCHAR afii10020
ENCODING 195
SWIDTH 878 0
DWIDTH 10 0
BBX 10 20 0 -5
BITMAP
0000
0000
7F80
6000
6000
6000
6000
6000
6000
6000
6000
6000
6000
6000
6000
0000
0000
0000
0000
0000
ENDCHAR
STARTCHAR afii10021
ENCODING 196
SWIDTH 878 0
DWIDTH 10 0
BBX 10 20 0 -5
BITMAP
0000
0000
0F00
1B00
3300
3300
3300
3300
3300
3300
3300
3300
3300
3300
7F80
6180
6180
0000
0000
0000
ENDCHAR
STARTCHAR afii10022
ENCODING 197
SWIDTH 878 0
DWIDTH 10 0
BBX 10 20 0 -5
BITMAP
0000
0000
7F80
6000
6000
6000
6000
6000
7E00
6000
6000
6000
6000
6000
7F80
0000
0000
0000
0000
0000
ENDCHAR
STARTCHAR afii10024
ENCODING 198
SWIDTH 878 0
DWIDTH 10 0
BBX 10 20 0 -5
BITMAP
0000
0000
6D80
6D80
6D80
6D80
6D80
3F00
1E00
3F00
6D80
6D80
6D80
6D80
6D80
0000
0000
0000
0000
0000
ENDCHAR
STARTCHAR afii10025
ENCODING 199
SWIDTH 878 0
DWIDTH 10 0
BBX 10 20 0 -5
BITMAP
0000
0000
1E00
3300
6180
0180
0180
0300
0E00
0300
0180
0180
6180
3300
1E00
0000
0000
0000
0000
0000
ENDCHAR
STARTCHAR afii10026
ENCODING 200
SWIDTH 878 0
DWIDTH 10 0
BBX 10 20 0 -5
BITMAP
0000
0000
6180
6380
6380
6780
6780
6D80
6D80
7980
7980
7180
7180
6180
6180
0000
0000
0000
0000
0000
ENDCHAR
STARTCHAR afii10027
ENCODING 201
SWIDTH 878 0
DWIDTH 10 0
BBX 10 20 0 -5
BITMAP
0000
0000
1E00
0000
6180
6380
6780
6780
6D80
6D80
7980
7980
7180
7180
6180
0000
0000
0000
0000
0000
ENDCHAR
STARTCHAR afii10028
ENCODING 202
SWIDTH 878 0
DWIDTH 10 0
BBX 10 20 0 -5
BITMAP
0000
0000
6180
6180
6300
6300
6600
6600
7C00
6600
6600
6300
6300
6180
6180
0000
0000
0000
0000
0000
ENDCHAR
STARTCHAR afii10029
ENCODING 203
SWIDTH 878 0
DWIDTH 10 0
BBX 10 20 0 -5
BITMAP
0000
0000
0F80
1980
3180
3180
3180
3180
3180
3180
3180
3180
3180
3180
6180
0000
0000
0000
0000
0000
ENDCHAR
STARTCHAR afii10030
ENCODING 204
SWIDTH 878 0
DWIDTH 10 0
BBX 10 20 0 -5
BITMAP
0000
0000
6180
6180
7380
7380
7F80
6D80
6D80
6D80
6D80
6180
6180
6180
6180
0000
0000
0000
0000
0000
ENDCHAR
STARTCHAR afii10031
ENCODING 205
SWIDTH 878 0
DWIDTH 10 0
BBX 10 20 0 -5
BITMAP
0000
0000
6180
6180
6180
6180
6180
6180
7F80
6180
6180
6180
6180
6180
6180
0000
0000
0000
0000
0000
ENDCHAR
STARTCHAR afii10032
ENCODING 206
SWIDTH 878 0
DWIDTH 10 0
BBX 10 20 0 -5
BITMAP
0000
0000
1E00
3300
6180
6180
6180
6180
6180
6180
6180
6180
6180
3300
1E00
0000
0000
0000
0000
0000
ENDCHAR
STARTCHAR afii10033
ENCODING 207
SWIDTH 878 0
DWIDTH 10 0
BBX 10 20 0 -5
BITMAP
0000
0000
7F80
6180
6180
6180
6180
6180
6180
6180
6180
6180
6180
6180
6180
0000
0000
0000
0000
0000
ENDCHAR
STARTCHAR afii10034
ENCODING 208
SWIDTH 878 0
DWIDTH 10 0
BBX 10 20 0 -5
BITMAP
0000
0000
7E00
6300
6180
6180
6180
6180
6300
7E00
6000
6000
6000
6000
6000
0000
0000
0000
0000
0000
ENDCHAR
STARTCHAR afii10035
ENCODING 209
SWIDTH 878 0
DWIDTH 10 0
BBX 10 20 0 -5
BITMAP
0000
0000
1E00
3300
6180
6000
6000
6000
6000
6000
6000
6000
6180
3300
1E00
0000
0000
0000
0000
0000
ENDCHAR
STARTCHAR afii10036
ENCODING 210
SWIDTH 878 0
DWIDTH 10 0
BBX 10 20 0 -5
BITMAP
0000
0000
7F80
0C00
0C00
0C00
0C00
0C00
0C00
0C00
0C00
0C00
0C00
0C00
0C00
0000
0000
0000
0000
0000
ENDCHAR
STARTCHAR afii10037
ENCODING 211
SWIDTH 878 0
DWIDTH 10 0
BBX 10 20 0 -5
BITMAP
0000
0000
6180
6180
6180
6180
6180
6180
3380
1F80
0180
0180
6180
3300
1E00
0000
0000
0000
0000
0000
ENDCHAR
STARTCHAR afii10038
ENCODING 212
SWIDTH 878 0
DWIDTH 10 0
BBX 10 20 0 -5
BITMAP
0000
0000
0C00
3F00
6D80
6D80
6D80
6D80
6D80
6D80
6D80
6D80
3F00
0C00
0C00
0000
0000
0000
0000
0000
ENDCHAR
STARTCHAR afii10039
ENCODING 213
SWIDTH 878 0
DWIDTH 10 0
BBX 10 20 0 -5
BITMAP
0000
0000
6180
6180
3300
3300
1E00
1E00
0C00
1E00
1E00
3300
3300
6180
6180
0000
0000
0000
0000
0000
ENDCHAR
STARTCHAR afii10040
ENCODING 214
SWIDTH 878 0
DWIDTH 10 0
BBX 10 20 0 -5
BITMAP
0000
0000
6300
6300
6300
6300
6300
6300
6300
6300
6300
6300
6300
6300
7F80
0180
0180
0000
0000
0000
ENDCHAR
STARTCHAR afii10041
ENCODING 215
SWIDTH 878 0
DWIDTH 10 0
BBX 10 20 0 -5
BITMAP
0000
0000
6180
6180
6180
6180
6180
6180
3180
1F80
0180
0180
0180
0180
0180
0000
0000
0000
0000
0000
ENDCHAR
STARTCHAR afii10042
ENCODING 216
SWIDTH 878 0
DWIDTH 10 0
BBX 10 20 0 -5
BITMAP
0000
0000
6D80
6D80
6D80
6D80
6D80
6D80
6D80
6D80
6D80
6D80
6D80
6D80
7F80
0000
0000
0000
0000
0000
ENDCHAR
STARTCHAR afii10043
ENCODING 217
SWIDTH 878 0
DWIDTH 10 0
BBX 10 20 0 -5
BITMAP
0000
0000
6D80
6D80
6D80
6D80
6D80
6D80
6D80
6D80
6D80
6D80
6D80
6D80
7FC0
00C0
00C0
0000
0000
0000
ENDCHAR
STARTCHAR afii10044
ENCODING 218
SWIDTH 878 0
DWIDTH 10 0
BBX 10 20 0 -5
BITMAP
0000
0000
7800
1800
1800
1800
1800
1E00
1B00
1980
1980
1980
1980
1B00
1E00
0000
0000
0000
0000
0000
ENDCHAR
STARTCHAR afii10045
ENCODING 219
SWIDTH 878 0
DWIDTH 10 0
BBX 10 20 0 -5
BITMAP
0000
0000
6180
6180
6180
6180
6180
7980
6D80
6D80
6D80
6D80
6D80
6D80
7980
0000
0000
0000
0000
0000
ENDCHAR
STARTCHAR afii10046
ENCODING 220
SWIDTH 878 0
DWIDTH 10 0
BBX 10 20 0 -5
BITMAP
0000
0000
6000
6000
6000
6000
6000
7E00
6300
6180
6180
6180
6180
6300
7E00
0000
0000
0000
0000
0000
ENDCHAR
STARTCHAR afii10047
ENCODING 221
SWIDTH 878 0
DWIDTH 10 0
BBX 10 20 0 -5
BITMAP
0000
0000
1E00
3300
6180
0180
0180
0180
0F80
0180
0180
0180
6180
3300
1E00
0000
0000
0000
0000
0000
ENDCHAR
STARTCHAR afii10048
ENCODING 222
SWIDTH 878 0
DWIDTH 10 0
BBX 10 20 0 -5
BITMAP
0000
0000
6700
6D80
6D80
6D80
6D80
6D80
7D80
6D80
6D80
6D80
6D80
6D80
6700
0000
0000
0000
0000
0000
ENDCHAR
STARTCHAR afii10049
ENCODING 223
SWIDTH 878 0
DWIDTH 10 0
BBX 10 20 0 -5
BITMAP
0000
0000
1F80
3180
6180
6180
6180
6180
3180
1F80
1980
3180
3180
6180
6180
0000
0000
0000
0000
0000
ENDCHAR
STARTCHAR afii10065
ENCODING 224
SWIDTH 878 0
DWIDTH 10 0
BBX 10 20 0 -5
BITMAP
0000
0000
0000
0000
0000
0000
0000
1F00
3180
0180
3F80
6180
6180
6180
3E80
0000
0000
0000
0000
0000
ENDCHAR
STARTCHAR afii10066
ENCODING 225
SWIDTH 878 0
DWIDTH 10 0
BBX 10 20 0 -5
BITMAP
0000
0000
0180
1F00
3000
6000
6000
6E00
7300
6180
6180
6180
6180
3300
1E00
0000
0000
0000
0000
0000
ENDCHAR
STARTCHAR afii10067
ENCODING 226
SWIDTH 878 0
DWIDTH 10 0
BBX 10 20 0 -5
BITMAP
0000
0000
0000
0000
0000
0000
0000
7F00
6180
6180
7F00
6180
6180
6180
7F00
0000
0000
0000
0000
0000
ENDCHAR
STARTCHAR afii10068
ENCODING 227
SWIDTH 878 0
DWIDTH 10 0
BBX 10 20 0 -5
BITMAP
0000
0000
0000
0000
0000
0000
0000
3F80
3000
3000
3000
3000
3000
3000
3000
0000
0000
0000
0000
0000
ENDCHAR
STARTCHAR afii10069
ENCODING 228
SWIDTH 878 0
DWIDTH 10 0
BBX 10 20 0 -5
BITMAP
0000
0000
0000
0000
0000
0000
0000
0F00
1B00
3300
3300
3300
3300
3300
7F80
6180
6180
0000
0000
0000
ENDCHAR
STARTCHAR afii10070
ENCODING 229
SWIDTH 878 0
DWIDTH 10 0
BBX 10 20 0 -5
BITMAP
0000
0000
0000
0000
0000
0000
0000
1E00
3300
6180
7F80
6000
6000
3180
1F00
0000
0000
0000
0000
0000
ENDCHAR
STARTCHAR afii10072
ENCODING 230
SWIDTH 878 0
DWIDTH 10 0
BBX 10 20 0 -5
BITMAP
0000
0000
0000
0000
0000
0000
0000
6D80
6D80
3F00
1E00
3F00
6D80
6D80
6D80
0000
0000
0000
0000
0000
ENDCHAR
STARTCHAR afii10073
ENCODING 231
SWIDTH 878 0
DWIDTH 10 0
BBX 10 20 0 -5
BITMAP
0000
0000
0000
0000
0000
0000
0000
3F00
6180
0180
0F00
0180
0180
6180
3F00
0000
0000
0000
0000
0000
ENDCHAR
STARTCHAR afii10074
ENCODING 232
SWIDTH 878 0
DWIDTH 10 0
BBX 10 20 0 -5
BITMAP
0000
0000
0000
0000
0000
0000
0000
6180
6180
6380
6780
6D80
7980
7180
6180
0000
0000
0000
0000
0000
ENDCHAR
STARTCHAR afii10075
ENCODING 233
SWIDTH 878 0
DWIDTH 10 0
BBX 10 20 0 -5
BITMAP
0000
0000
0000
0000
0000
1E00
0000
6180
6180
6380
6780
6D80
7980
7180
6180
0000
0000
0000
0000
0000
ENDCHAR
STARTCHAR afii10076
ENCODING 234
SWIDTH 878 0
DWIDTH 10 0
BBX 10 20 0 -5
BITMAP
0000
0000
0000
0000
0000
0000
0000
6300
6600
6C00
7800
7C00
6600
6300
6180
0000
0000
0000
0000
0000
ENDCHAR
STARTCHAR afii10077
ENCODING 235
SWIDTH 878 0
DWIDTH 10 0
BBX 10 20 0 -5
BITMAP
0000
0000
0000
0000
0000
0000
0000
0F80
1980
3180
3180
3180
3180
3180
6180
0000
0000
0000
0000
0000
ENDCHAR
STARTCHAR afii10078
ENCODING 236
SWIDTH 878 0
DWIDTH 10 0
BBX 10 20 0 -5
BITMAP
0000
0000
0000
0000
0000
0000
0000
6180
7380
7380
7F80
6D80
6D80
6180
6180
0000
0000
0000
0000
0000
ENDCHAR
STARTCHAR afii10079
ENCODING 237
SWIDTH 878 0
DWIDTH 10 0
BBX 10 20 0 -5
BITMAP
0000
0000
0000
0000
0000
0000
0000
6180
6180
6180
7F80
6180
6180
6180
6180
0000
0000
0000
0000
0000
ENDCHAR
STARTCHAR afii10080
ENCODING 238
SWIDTH 878 0
DWIDTH 10 0
BBX 10 20 0 -5
BITMAP
0000
0000
0000
0000
0000
0000
0000
1E00
3300
6180
6180
6180
6180
3300
1E00
0000
0000
0000
0000
0000
ENDCHAR
STARTCHAR afii10081
ENCODING 239
SWIDTH 878 0
DWIDTH 10 0
BBX 10 20 0 -5
BITMAP
0000
0000
0000
0000
0000
0000
0000
7F80
6180
6180
6180
6180
6180
6180
6180
0000
0000
0000
0000
0000
ENDCHAR
STARTCHAR afii10082
ENCODING 240
SWIDTH 878 0
DWIDTH 10 0
BBX 10 20 0 -5
BITMAP
0000
0000
0000
0000
0000
0000
0000
6E00
7300
6180
6180
6180
6180
7300
6E00
6000
6000
6000
6000
0000
ENDCHAR
STARTCHAR afii10083
ENCODING 241
SWIDTH 878 0
DWIDTH 10 0
BBX 10 20 0 -5
BITMAP
0000
0000
0000
0000
0000
0000
0000
1F00
3180
6000
6000
6000
6000
3180
1F00
0000
0000
0000
0000
0000
ENDCHAR
STARTCHAR afii10084
ENCODING 242
SWIDTH 878 0
DWIDTH 10 0
BBX 10 20 0 -5
BITMAP
0000
0000
0000
0000
0000
0000
0000
7F80
0C00
0C00
0C00
0C00
0C00
0C00
0C00
0000
0000
0000
0000
0000
ENDCHAR
STARTCHAR afii10085
ENCODING 243
SWIDTH 878 0
DWIDTH 10 0
BBX 10 20 0 -5
BITMAP
0000
0000
0000
0000
0000
0000
0000
6180
6180
6180
6180
6180
6180
3380
1D80
0180
6180
3300
1E00
0000
ENDCHAR
STARTCHAR afii10086
ENCODING 244
SWIDTH 878 0
DWIDTH 10 0
BBX 10 20 0 -5
BITMAP
0000
0000
0C00
0C00
0C00
0C00
0C00
3F00
6D80
6D80
6D80
6D80
6D80
6D80
3F00
0C00
0C00
0C00
0C00
0000
ENDCHAR
STARTCHAR afii10087
ENCODING 245
SWIDTH 878 0
DWIDTH 10 0
BBX 10 20 0 -5
BITMAP
0000
0000
0000
0000
0000
0000
0000
6180
3300
1E00
0C00
0C00
1E00
3300
6180
0000
0000
0000
0000
0000
ENDCHAR
STARTCHAR afii10088
ENCODING 246
SWIDTH 878 0
DWIDTH 10 0
BBX 10 20 0 -5
BITMAP
0000
0000
0000
0000
0000
0000
0000
6300
6300
6300
6300
6300
6300
6300
7F80
0180
0180
0000
0000
0000
ENDCHAR
STARTCHAR afii10089
ENCODING 247
SWIDTH 878 0
DWIDTH 10 0
BBX 10 20 0 -5
BITMAP
0000
0000
0000
0000
0000
0000
0000
6180
6180
6180
6180
3180
1F80
0180
0180
0000
0000
0000
0000
0000
ENDCHAR
STARTCHAR afii10090
ENCODING 248
SWIDTH 878 0
DWIDTH 10 0
BBX 10 20 0 -5
BITMAP
0000
0000
0000
0000
0000
0000
0000
6D80
6D80
6D80
6D80
6D80
6D80
6D80
7F80
0000
0000
0000
0000
0000
ENDCHAR
STARTCHAR afii10091
ENCODING 249
SWIDTH 878 0
DWIDTH 10 0
BBX 10 20 0 -5
BITMAP
0000
0000
0000
0000
0000
0000
0000
6D80
6D80
6D80
6D80
6D80
6D80
6D80
7FC0
00C0
00C0
0000
0000
0000
ENDCHAR
STARTCHAR afii10092
ENCODING 250
SWIDTH 878 0
DWIDTH 10 0
BBX 10 20 0 -5
BITMAP
0000
0000
0000
0000
0000
0000
0000
7800
1800
1800
1F00
1980
1980
1980
1F00
0000
0000
0000
0000
0000
ENDCHAR
STARTCHAR afii10093
ENCODING 251
SWIDTH 878 0
DWIDTH 10 0
BBX 10 20 0 -5
BITMAP
0000
0000
0000
0000
0000
0000
0000
6180
6180
6180
7980
6D80
6D80
6D80
7980
0000
0000
0000
0000
0000
ENDCHAR
STARTCHAR afii10094
ENCODING 252
SWIDTH 878 0
DWIDTH 10 0
BBX 10 20 0 -5
BITMAP
0000
0000
0000
0000
0000
0000
0000
6000
6000
6000
7F00
6180
6180
6180
7F00
0000
0000
0000
0000
0000
ENDCHAR
STARTCHAR afii10095
ENCODING 253
SWIDTH 878 0
DWIDTH 10 0
BBX 10 20 0 -5
BITMAP
0000
0000
0000
0000
0000
0000
0000
3E00
6300
0180
0F80
0180
0180
6300
3E00
0000
0000
0000
0000
0000
ENDCHAR
STARTCHAR afii10096
ENCODING 254
SWIDTH 878 0
DWIDTH 10 0
BBX 10 20 0 -5
BITMAP
0000
0000
0000
0000
0000
0000
0000
6700
6D80
6D80
7D80
6D80
6D80
6D80
6700
0000
0000
0000
0000
0000
ENDCHAR
STARTCHAR afii10097
ENCODING 255
SWIDTH 878 0
DWIDTH 10 0
BBX 10 20 0 -5
BITMAP
0000
0000
0000
0000
0000
0000
0000
3F80
6180
6180
6180
3F80
3180
6180
6180
0000
0000
0000
0000
0000
ENDCHAR
STARTCHAR tilde
ENCODING -1
SWIDTH 878 0
DWIDTH 10 0
BBX 10 20 0 -5
BITMAP
0000
0000
0000
1900
3F00
2600
0000
0000
0000
0000
0000
0000
0000
0000
0000
0000
0000
0000
0000
0000
ENDCHAR
STARTCHAR florin
ENCODING -1
SWIDTH 878 0
DWIDTH 10 0
BBX 10 20 0 -5
BITMAP
0000
0000
0F00
1980
1980
1800
1800
1800
1800
7E00
1800
1800
1800
1800
1800
D800
D800
7000
0000
0000
ENDCHAR
STARTCHAR circumflex
ENCODING -1
SWIDTH 878 0
DWIDTH 10 0
BBX 10 20 0 -5
BITMAP
0000
0000
0C00
1E00
3300
0000
0000
0000
0000
0000
0000
0000
0000
0000
0000
0000
0000
0000
0000
0000
ENDCHAR
STARTCHAR OE
ENCODING -1
SWIDTH 878 0
DWIDTH 10 0
BBX 10 20 0 -5
BITMAP
0000
0000
1F80
3600
6600
6600
6600
6600
6780
6600
6600
6600
6600
3600
1F80
0000
0000
0000
0000
0000
ENDCHAR
STARTCHAR oe
ENCODING -1
SWIDTH 878 0
DWIDTH 10 0
BBX 10 20 0 -5
BITMAP
0000
0000
0000
0000
0000
0000
0000
3B00
6D80
6D80
6F00
6C00
6C00
6C80
3700
0000
0000
0000
0000
0000
ENDCHAR
STARTCHAR Scaron
ENCODING -1
SWIDTH 878 0
DWIDTH 10 0
BBX 10 20 0 -5
BITMAP
0000
0000
3300
1E00
0C00
0000
3F00
6180
6000
3000
1E00
0300
0180
6180
3F00
0000
0000
0000
0000
0000
ENDCHAR
STARTCHAR scaron
ENCODING -1
SWIDTH 878 0
DWIDTH 10 0
BBX 10 20 0 -5
BITMAP
0000
0000
3300
1E00
0C00
0000
0000
3F00
6180
6000
3F00
0180
0180
6180
3F00
0000
0000
0000
0000
0000
ENDCHAR
STARTCHAR Zcaron
ENCODING -1
SWIDTH 878 0
DWIDTH 10 0
BBX 10 20 0 -5
BITMAP
0000
0000
3300
1E00
0C00
0000
7F80
0180
0300
0600
0C00
1800
3000
6000
7F80
0000
0000
0000
0000
0000
ENDCHAR
STARTCHAR zcaron
ENCODING -1
SWIDTH 878 0
DWIDTH 10 0
BBX 10 20 0 -5
BITMAP
0000
0000
3300
1E00
0C00
0000
0000
3F80
0180
0300
0600
0C00
1800
3000
3F80
0000
0000
0000
0000
0000
ENDCHAR
STARTCHAR Ydieresis
ENCODING -1
SWIDTH 878 0
DWIDTH 10 0
BBX 10 20 0 -5
BITMAP
0000
0000
3300
3300
0000
0000
6180
6180
3300
1E00
0C00
0C00
0C00
0C00
0C00
0000
0000
0000
0000
0000
ENDCHAR
ENDFONT
